<svg xmlns="http://www.w3.org/2000/svg" viewBox="0 0 512 512" width="512" height="512">
<defs><linearGradient id="bg" x1="0" y1="0" x2="0" y2="1">
<stop offset="0" stop-color="#100c1e"/><stop offset="1" stop-color="#07060e"/></linearGradient></defs>
<rect x="0" y="0" width="512" height="512" rx="96" fill="url(#bg)"/>
<circle cx="256.0" cy="256.0" r="194.6" fill="none" stroke="#7864af" stroke-width="6.1"/>
<line x1="256.0" y1="158.7" x2="340.2" y2="207.4" stroke="#00e5ff" stroke-width="25.6" stroke-linecap="round"/><line x1="340.2" y1="207.4" x2="402.3" y2="171.5" stroke="#00e5ff" stroke-width="25.6" stroke-linecap="round"/><line x1="340.2" y1="207.4" x2="340.2" y2="304.6" stroke="#1ec9ff" stroke-width="25.6" stroke-linecap="round"/><line x1="340.2" y1="304.6" x2="402.3" y2="340.5" stroke="#1ec9ff" stroke-width="25.6" stroke-linecap="round"/><line x1="340.2" y1="304.6" x2="256.0" y2="353.3" stroke="#3cadff" stroke-width="25.6" stroke-linecap="round"/><line x1="256.0" y1="353.3" x2="256.0" y2="425.0" stroke="#3cadff" stroke-width="25.6" stroke-linecap="round"/><line x1="256.0" y1="353.3" x2="171.8" y2="304.6" stroke="#5a91ff" stroke-width="25.6" stroke-linecap="round"/><line x1="171.8" y1="304.6" x2="109.7" y2="340.5" stroke="#5a91ff" stroke-width="25.6" stroke-linecap="round"/><line x1="171.8" y1="304.6" x2="171.8" y2="207.4" stroke="#7875ff" stroke-width="25.6" stroke-linecap="round"/><line x1="171.8" y1="207.4" x2="109.7" y2="171.5" stroke="#7875ff" stroke-width="25.6" stroke-linecap="round"/><line x1="171.8" y1="207.4" x2="256.0" y2="158.7" stroke="#965aff" stroke-width="25.6" stroke-linecap="round"/><line x1="256.0" y1="158.7" x2="256.0" y2="87.0" stroke="#965aff" stroke-width="25.6" stroke-linecap="round"/>
<text x="256.0" y="256.0" font-family="Arial, Segoe UI, sans-serif" font-weight="bold" font-size="154" fill="#f5f8fc" text-anchor="middle" dominant-baseline="central">S</text>
</svg>